<mxfile host="app.diagrams.net" modified="2021-08-26T03:51:29.734Z" agent="5.0 (Macintosh; Intel Mac OS X 10_16_0) AppleWebKit/537.36 (KHTML, like Gecko) Chrome/81.0.4044.138 Safari/537.36" etag="Ign0RxVmGgLTbCLcRLhc" version="14.9.3" type="github">
  <diagram id="NuO11RmyNh4fEla-yD1q" name="Page-1">
    <mxGraphModel dx="1265" dy="841" grid="1" gridSize="10" guides="1" tooltips="1" connect="1" arrows="1" fold="1" page="1" pageScale="1" pageWidth="827" pageHeight="1169" math="0" shadow="0">
      <root>
        <mxCell id="0" />
        <mxCell id="1" parent="0" />
        <mxCell id="OoSfEHq5_-Fq0xSnBed_-8" value="" style="rounded=1;whiteSpace=wrap;html=1;" vertex="1" parent="1">
          <mxGeometry x="160" y="220" width="150" height="250" as="geometry" />
        </mxCell>
        <mxCell id="OoSfEHq5_-Fq0xSnBed_-6" value="用户组织" style="shape=cylinder3;whiteSpace=wrap;html=1;boundedLbl=1;backgroundOutline=1;size=15;" vertex="1" parent="1">
          <mxGeometry x="200" y="240" width="60" height="80" as="geometry" />
        </mxCell>
        <mxCell id="OoSfEHq5_-Fq0xSnBed_-7" value="用户" style="shape=cylinder3;whiteSpace=wrap;html=1;boundedLbl=1;backgroundOutline=1;size=15;" vertex="1" parent="1">
          <mxGeometry x="200" y="370" width="60" height="80" as="geometry" />
        </mxCell>
        <mxCell id="OoSfEHq5_-Fq0xSnBed_-9" value="无影Admin管控" style="text;html=1;strokeColor=none;fillColor=none;align=center;verticalAlign=middle;whiteSpace=wrap;rounded=0;fontSize=14;" vertex="1" parent="1">
          <mxGeometry x="180" y="190" width="100" height="20" as="geometry" />
        </mxCell>
        <mxCell id="OoSfEHq5_-Fq0xSnBed_-10" value="IDaaS" style="rounded=1;whiteSpace=wrap;html=1;fontSize=14;" vertex="1" parent="1">
          <mxGeometry x="440" y="220" width="120" height="250" as="geometry" />
        </mxCell>
        <mxCell id="OoSfEHq5_-Fq0xSnBed_-11" value="" style="endArrow=classic;html=1;fontSize=14;" edge="1" parent="1">
          <mxGeometry width="50" height="50" relative="1" as="geometry">
            <mxPoint x="440" y="279.5" as="sourcePoint" />
            <mxPoint x="310" y="280" as="targetPoint" />
          </mxGeometry>
        </mxCell>
        <mxCell id="OoSfEHq5_-Fq0xSnBed_-12" value="" style="endArrow=classic;html=1;fontSize=14;" edge="1" parent="1">
          <mxGeometry width="50" height="50" relative="1" as="geometry">
            <mxPoint x="440" y="400" as="sourcePoint" />
            <mxPoint x="310" y="400.5" as="targetPoint" />
          </mxGeometry>
        </mxCell>
        <mxCell id="OoSfEHq5_-Fq0xSnBed_-13" value="SCIM推送（POP）" style="text;html=1;strokeColor=none;fillColor=none;align=center;verticalAlign=middle;whiteSpace=wrap;rounded=0;fontSize=14;" vertex="1" parent="1">
          <mxGeometry x="320" y="190" width="130" height="20" as="geometry" />
        </mxCell>
        <mxCell id="OoSfEHq5_-Fq0xSnBed_-14" value="组织数据" style="text;html=1;strokeColor=none;fillColor=none;align=center;verticalAlign=middle;whiteSpace=wrap;rounded=0;fontSize=13;" vertex="1" parent="1">
          <mxGeometry x="330" y="250" width="96" height="37" as="geometry" />
        </mxCell>
        <mxCell id="OoSfEHq5_-Fq0xSnBed_-18" value="用户数据" style="text;html=1;strokeColor=none;fillColor=none;align=center;verticalAlign=middle;whiteSpace=wrap;rounded=0;fontSize=13;" vertex="1" parent="1">
          <mxGeometry x="330" y="370" width="96" height="37" as="geometry" />
        </mxCell>
        <mxCell id="OoSfEHq5_-Fq0xSnBed_-22" value="" style="edgeStyle=orthogonalEdgeStyle;rounded=0;orthogonalLoop=1;jettySize=auto;html=1;fontSize=13;" edge="1" parent="1" source="OoSfEHq5_-Fq0xSnBed_-19" target="OoSfEHq5_-Fq0xSnBed_-10">
          <mxGeometry relative="1" as="geometry" />
        </mxCell>
        <mxCell id="OoSfEHq5_-Fq0xSnBed_-19" value="企业账号" style="ellipse;whiteSpace=wrap;html=1;fontSize=13;" vertex="1" parent="1">
          <mxGeometry x="650" y="228.5" width="120" height="80" as="geometry" />
        </mxCell>
        <mxCell id="OoSfEHq5_-Fq0xSnBed_-21" value="" style="edgeStyle=orthogonalEdgeStyle;rounded=0;orthogonalLoop=1;jettySize=auto;html=1;fontSize=13;" edge="1" parent="1" source="OoSfEHq5_-Fq0xSnBed_-20" target="OoSfEHq5_-Fq0xSnBed_-10">
          <mxGeometry relative="1" as="geometry" />
        </mxCell>
        <mxCell id="OoSfEHq5_-Fq0xSnBed_-20" value="其他账号" style="ellipse;whiteSpace=wrap;html=1;fontSize=13;" vertex="1" parent="1">
          <mxGeometry x="650" y="390" width="120" height="80" as="geometry" />
        </mxCell>
      </root>
    </mxGraphModel>
  </diagram>
</mxfile>
